PathFileType	4	(X/Y/Z)	C:\Users\86182\Documents\cortex\Trimmed_M1_L4.trc
DataRate	CameraRate	NumFrames	NumMarkers	Units	OrigDataRate	OrigDataStartFrame	OrigNumFrames
100.00	100.00	       70	2	mm	100.00	571	       951
Frame#	Time	gripper			box			
		X1	Y1	Z1	X2	Y2	Z2	

571	5.700	197.98949	194.39919	293.15533	200.44688	193.15912	157.99654	
572	5.710	197.92513	194.39615	293.15326	200.46239	193.17729	157.99039	
573	5.720	197.97874	194.38988	293.15421	200.43661	193.14706	158.00061	
574	5.730	197.93057	194.40086	293.15381	200.43146	193.14104	158.00264	
575	5.740	197.88594	194.36266	293.14752	200.40604	193.11124	158.01271	
576	5.750	197.94690	194.35326	293.14841	200.41618	193.12314	158.00868	
577	5.760	197.89680	194.37427	293.14014	200.40703	193.11377	158.00963	
578	5.770	197.88701	194.36314	293.14935	200.39377	193.10777	157.99599	
579	5.780	197.87674	194.36131	293.13770	200.40451	193.11081	158.01062	
580	5.790	197.90985	194.36368	293.15002	200.40190	193.11456	157.99815	
581	5.800	197.89977	194.37859	293.15030	200.40646	193.12268	157.99089	
582	5.810	197.93057	194.40086	293.15381	200.43614	193.14925	157.99538	
583	5.820	197.91431	194.38678	293.15216	200.43565	193.15143	157.99013	
584	5.830	197.93628	194.36264	293.15067	200.40907	193.11887	158.00343	
585	5.840	197.90897	194.36769	293.15036	200.41110	193.11717	158.01070	
586	5.850	197.88701	194.36314	293.14935	200.40604	193.11124	158.01271	
587	5.860	197.89801	194.35822	293.14923	200.40604	193.11124	158.01271	
588	5.870	197.89450	194.35437	293.13312	200.41667	193.12779	158.00040	
589	5.880	197.90599	194.34862	293.13815	200.39729	193.11328	157.99185	
590	5.890	197.91533	194.36679	293.14755	200.42638	193.13507	158.00465	
591	5.900	197.92357	194.40051	293.14767	200.41414	193.13170	157.98781	
592	5.910	197.91098	194.38522	293.14670	200.42589	193.13722	157.99945	
593	5.920	197.91431	194.38678	293.15216	200.43661	193.14706	158.00061	
594	5.930	197.90529	194.36934	293.15039	200.41618	193.12314	158.00868	
595	5.940	197.94768	194.41089	293.15518	200.40604	193.11124	158.01271	
596	5.950	197.90067	194.37497	293.15076	200.40550	193.11333	158.00755	
597	5.960	197.91719	194.36040	293.14993	200.39684	193.10864	158.00018	
598	5.970	197.89796	194.37262	293.15048	200.40604	193.11124	158.01271	
599	5.980	197.89796	194.37262	293.15048	200.39775	193.11798	157.98346	
600	5.990	197.90067	194.37497	293.15076	200.41972	193.12865	158.00459	
601	6.000	197.92244	194.39383	293.15298	200.39684	193.10864	158.00018	
602	6.010	197.87881	194.36920	293.14746	200.40338	193.12183	157.98668	
603	6.020	197.92261	194.37950	293.15176	200.40298	193.11038	158.00854	
604	6.030	197.92877	194.39452	293.15326	200.41872	193.12608	158.00769	
605	6.040	197.91795	194.38515	293.15213	200.41110	193.11717	158.01070	
606	6.050	197.93163	194.38252	293.15225	200.41365	193.12015	158.00970	
607	6.060	197.91431	194.38678	293.15216	200.39993	193.10953	158.00438	
608	6.070	197.97327	194.39941	293.15488	200.44432	193.15610	157.99754	
609	6.080	197.94716	194.37207	293.15179	200.41365	193.12015	158.00970	
610	6.090	197.90254	194.36696	293.15012	200.41667	193.12779	158.00040	
611	6.100	197.94403	194.41252	293.15521	200.43146	193.14104	158.00264	
612	6.110	197.96165	194.38637	293.14651	200.40146	193.10995	158.00645	
613	6.120	197.90076	194.36060	293.14951	200.40604	193.11124	158.01271	
614	6.130	197.90433	194.37335	293.15073	200.40604	193.11124	158.01271	
615	6.140	197.95529	194.37910	293.15265	200.39221	193.10732	157.99390	
616	6.150	197.94403	194.41252	293.15521	200.42383	193.13208	158.00568	
617	6.160	197.97498	194.40569	293.15549	200.42892	193.13805	158.00366	
618	6.170	197.90341	194.37735	293.15103	200.42638	193.13507	158.00465	
619	6.180	197.93596	194.40553	293.15436	200.41110	193.11717	158.01070	
620	6.190	197.88701	194.36314	293.14935	200.42126	193.13594	157.99313	
621	6.200	197.88966	194.36018	293.14597	200.41008	193.12143	158.00032	
622	6.210	197.90613	194.37970	293.15131	200.42435	193.13680	157.99734	
623	6.220	197.90593	194.37695	293.13992	200.42332	193.14110	157.98686	
624	6.230	197.92064	194.38747	293.15240	200.39531	193.10820	157.99808	
625	6.240	197.91972	194.39148	293.15271	200.41872	193.12608	158.00769	
626	6.250	197.88974	194.36552	293.14963	200.39838	193.10907	158.00227	
627	6.260	197.94791	194.39662	293.15393	200.42892	193.13805	158.00366	
628	6.270	197.91972	194.39148	293.15271	200.41872	193.12608	158.00769	
629	6.280	197.96974	194.38684	293.15369	200.43146	193.14104	158.00264	
630	6.290	197.94984	194.37437	293.15207	200.42638	193.13507	158.00465	
631	6.300	197.91879	194.34795	293.14719	200.40085	193.11885	157.98769	
632	6.310	197.89801	194.35822	293.14923	200.42383	193.13208	158.00568	
633	6.320	197.90054	194.35828	293.13882	200.43822	193.15443	157.98911	
634	6.330	197.91522	194.36055	293.12390	200.42180	193.14070	157.98474	
635	6.340	197.96249	194.39009	293.15378	200.40750	193.11841	158.00134	
636	6.350	197.91159	194.38443	293.15186	200.41818	193.14201	157.97519	
637	6.360	197.91258	194.35167	293.14908	200.41975	193.14948	157.96347	
638	6.370	197.96692	194.35602	293.15094	200.41110	193.11717	158.01070	
639	6.380	197.94170	194.38162	293.15247	200.41667	193.12779	158.00040	
640	6.390	197.93260	194.37859	293.15195	200.44946	193.16212	157.99551	
